<svg xmlns="http://www.w3.org/2000/svg" viewBox="0 0 288.69 115.58"><defs><style>.cls-1{fill:#eb4d24;}.cls-2,.cls-3{fill:#89c7cc;}.cls-3{font-size:32.79px;font-family:sans-serif;font-weight:800;}.cls-4{font-size:30.83px;fill:#fff;font-family:sans-serif;font-weight:300;}.cls-5{letter-spacing:-0.02em;}</style></defs><title>Asset 3</title><g id="Layer_2" data-name="Layer 2"><g id="Layer_1-2" data-name="Layer 1"><circle class="cls-1" cx="40.02" cy="66.48" r="14.65"/><path class="cls-2" d="M39.87,115.58A34.81,34.81,0,0,1,24.68,112c-17.39-8.52-30.53-31.87-22-60A66.44,66.44,0,0,1,25.6,18.48a102.47,102.47,0,0,0-12.11-4.31L16.86,2.45a112.3,112.3,0,0,1,20.8,8.26C59.5-.73,85.68-2.15,102,2.44L98.64,14.18c-12-3.4-31.16-2.73-48.42,4.25C63,27.65,72.45,39.3,76.9,52,82.45,67.86,80,83.91,69.67,98.4,60.74,111,49.86,115.58,39.87,115.58Zm-2-90.78C27.27,31.7,18.51,41.7,14.33,55.51,7.86,76.92,17.59,95,30,101.05c10.59,5.19,21.69,1.56,29.69-9.71S69.58,68,65.39,56,51.3,33,37.89,24.8Z"/><text class="cls-3" transform="translate(99.78 58.15)">@HkmCode</text><text class="cls-4" transform="translate(99.93 87.76) rotate(-0.17)">F<tspan class="cls-5" x="15.97" y="0">r</tspan><tspan x="24.75" y="0">amework</tspan></text></g></g></svg>